<svg xmlns="http://www.w3.org/2000/svg" version="1.1" xmlns:xlink="http://www.w3.org/1999/xlink" width="1000" height="1000"><style>
    #light-icon {
      display: inline;
    }
    #dark-icon {
      display: none;
    }

    @media (prefers-color-scheme: dark) {
      #light-icon {
        display: none;
      }
      #dark-icon {
        display: inline;
      }
    }
  </style><g id="light-icon"><svg xmlns="http://www.w3.org/2000/svg" version="1.1" xmlns:xlink="http://www.w3.org/1999/xlink" width="1000" height="1000"><g><g transform="matrix(2.7472527472527473,0,0,2.7472527472527473,30.219780219780205,0)"><svg xmlns="http://www.w3.org/2000/svg" version="1.1" xmlns:xlink="http://www.w3.org/1999/xlink" width="342" height="364"><svg width="342" height="364" viewBox="0 0 342 364" fill="none" xmlns="http://www.w3.org/2000/svg">
<path d="M189.417 63L205.259 63.8361L221.935 67.1806L246.114 73.8694L261.123 80.5583L272.796 87.2472L284.469 95.6083L296.975 104.806L308.648 116.511L316.986 127.381L325.324 140.758L331.995 154.972L337.831 172.531L341.166 190.089L342 201.794V221.861L339.499 242.764L335.33 260.322L329.493 276.208L322.823 289.586L314.485 302.128L305.313 312.997L295.308 323.031L286.136 330.556L276.965 337.244L266.125 343.933L252.785 350.622L240.278 355.639L221.935 360.656L206.093 363.164L197.755 364H176.076L156.065 361.492L138.556 357.311L130.218 353.967L124.381 351.458L106.872 342.261L96.0327 334.736L87.6948 328.047L80.1907 322.194L72.6866 313.833L63.515 302.128L55.1771 289.586L45.1717 268.683L40.1689 255.306L36.8338 241.092L36 234.403V197.614L38.5014 181.728L41.8365 169.186L45.1717 159.989L53.5095 144.103L56.4278 140.34L62.6812 143.267L67.6839 146.611L74.3542 149.119L81.8583 152.464L90.1962 154.972L101.869 155.808L114.376 156.644L115.21 159.153L111.041 168.35L107.706 177.547L106.038 180.056L103.537 192.597L102.703 199.286V223.533L106.038 240.256L111.875 256.978L117.711 267.847L126.883 279.553L136.888 289.586L149.395 297.947L156.065 301.292L163.569 303.8L174.409 304.636H206.093L218.599 302.128L230.272 297.947L240.278 292.094L251.117 281.225L260.289 268.683L263.624 262.831H265.292L266.959 256.142L271.128 246.944L275.297 226.878V206.811L272.796 190.089L269.46 179.219L262.79 165.006L254.452 153.3L247.782 145.775L235.275 137.414L223.602 131.561L211.095 127.381L196.921 124.872L171.907 122.364L166.905 120.692L164.403 80.5583V68.8528L172.741 65.5083L181.079 63.8361L189.417 63Z" fill="#2A3570"></path>
<path d="M36.7447 0H65.9734L83.5106 2.48521L99.3777 6.62722L108.564 10.7692L119.42 18.2249L130.277 28.1657L139.463 38.1065L147.814 50.5325L154.495 63.787L157 70.4142V113.491H150.319L146.979 106.035L144.891 100.237L142.803 94.8521L141.968 91.9527L135.287 82.8402L128.606 74.5562L120.255 65.4438L113.574 59.645L101.883 51.3609L88.5213 43.9053L76.8298 38.9349L66.8085 36.4497L69.7314 38.9349L72.6543 41.4201L86.016 51.3609L96.8723 60.4734L107.729 71.2426L120.255 87.8106L127.771 96.9231L131.112 100.651L139.463 110.178L144.473 124.26L146.979 135.858V139.172L137.793 140H124.431L104.388 138.343L89.3564 135.03L76.8298 130.059L66.8085 124.26L60.1277 119.704L55.117 115.148L48.4362 104.379L40.9202 88.6391L29.2287 57.1598L22.5479 43.9053L16.7021 34.7929L10.0213 26.5089L0 16.568V9.94083L8.35106 5.79882L24.2181 1.6568L36.7447 0Z" fill="#77A155"></path>
</svg></svg></g></g></svg></g><g id="dark-icon"><svg xmlns="http://www.w3.org/2000/svg" version="1.1" xmlns:xlink="http://www.w3.org/1999/xlink" width="1000" height="1000"><g clip-path="url(#SvgjsClipPath1015)"><rect width="1000" height="1000" fill="#ffffff"></rect><g transform="matrix(1.9230769230769231,0,0,1.9230769230769231,171.15384615384613,150)"><svg xmlns="http://www.w3.org/2000/svg" version="1.1" xmlns:xlink="http://www.w3.org/1999/xlink" width="342" height="364"><svg width="342" height="364" viewBox="0 0 342 364" fill="none" xmlns="http://www.w3.org/2000/svg">
<path d="M189.417 63L205.259 63.8361L221.935 67.1806L246.114 73.8694L261.123 80.5583L272.796 87.2472L284.469 95.6083L296.975 104.806L308.648 116.511L316.986 127.381L325.324 140.758L331.995 154.972L337.831 172.531L341.166 190.089L342 201.794V221.861L339.499 242.764L335.33 260.322L329.493 276.208L322.823 289.586L314.485 302.128L305.313 312.997L295.308 323.031L286.136 330.556L276.965 337.244L266.125 343.933L252.785 350.622L240.278 355.639L221.935 360.656L206.093 363.164L197.755 364H176.076L156.065 361.492L138.556 357.311L130.218 353.967L124.381 351.458L106.872 342.261L96.0327 334.736L87.6948 328.047L80.1907 322.194L72.6866 313.833L63.515 302.128L55.1771 289.586L45.1717 268.683L40.1689 255.306L36.8338 241.092L36 234.403V197.614L38.5014 181.728L41.8365 169.186L45.1717 159.989L53.5095 144.103L56.4278 140.34L62.6812 143.267L67.6839 146.611L74.3542 149.119L81.8583 152.464L90.1962 154.972L101.869 155.808L114.376 156.644L115.21 159.153L111.041 168.35L107.706 177.547L106.038 180.056L103.537 192.597L102.703 199.286V223.533L106.038 240.256L111.875 256.978L117.711 267.847L126.883 279.553L136.888 289.586L149.395 297.947L156.065 301.292L163.569 303.8L174.409 304.636H206.093L218.599 302.128L230.272 297.947L240.278 292.094L251.117 281.225L260.289 268.683L263.624 262.831H265.292L266.959 256.142L271.128 246.944L275.297 226.878V206.811L272.796 190.089L269.46 179.219L262.79 165.006L254.452 153.3L247.782 145.775L235.275 137.414L223.602 131.561L211.095 127.381L196.921 124.872L171.907 122.364L166.905 120.692L164.403 80.5583V68.8528L172.741 65.5083L181.079 63.8361L189.417 63Z" fill="#2A3570"></path>
<path d="M36.7447 0H65.9734L83.5106 2.48521L99.3777 6.62722L108.564 10.7692L119.42 18.2249L130.277 28.1657L139.463 38.1065L147.814 50.5325L154.495 63.787L157 70.4142V113.491H150.319L146.979 106.035L144.891 100.237L142.803 94.8521L141.968 91.9527L135.287 82.8402L128.606 74.5562L120.255 65.4438L113.574 59.645L101.883 51.3609L88.5213 43.9053L76.8298 38.9349L66.8085 36.4497L69.7314 38.9349L72.6543 41.4201L86.016 51.3609L96.8723 60.4734L107.729 71.2426L120.255 87.8106L127.771 96.9231L131.112 100.651L139.463 110.178L144.473 124.26L146.979 135.858V139.172L137.793 140H124.431L104.388 138.343L89.3564 135.03L76.8298 130.059L66.8085 124.26L60.1277 119.704L55.117 115.148L48.4362 104.379L40.9202 88.6391L29.2287 57.1598L22.5479 43.9053L16.7021 34.7929L10.0213 26.5089L0 16.568V9.94083L8.35106 5.79882L24.2181 1.6568L36.7447 0Z" fill="#77A155"></path>
</svg></svg></g></g><defs><clipPath id="SvgjsClipPath1015"><rect width="1000" height="1000" x="0" y="0" rx="350" ry="350"></rect></clipPath></defs></svg></g></svg>