<?xml version="1.0" encoding="UTF-8"?>
<svg version="1.1" xmlns="http://www.w3.org/2000/svg" width="111" height="115">
<path d="M0 0 C36.63 0 73.26 0 111 0 C111 37.95 111 75.9 111 115 C74.37 115 37.74 115 0 115 C0 77.05 0 39.1 0 0 Z M3 5 C4.15175328 7.72232593 5.40263562 9.45255455 7.39453125 11.69140625 C10.11219672 14.91154268 11.59181294 18.37280301 13 22.3125 C17.87600102 35.20244408 17.87600102 35.20244408 28 44 C30.70716242 44.90238747 32.23776768 45.11851302 35.01171875 45.09765625 C35.76904297 45.09443359 36.52636719 45.09121094 37.30664062 45.08789062 C38.09232422 45.07951172 38.87800781 45.07113281 39.6875 45.0625 C40.48478516 45.05798828 41.28207031 45.05347656 42.10351562 45.04882812 C44.06904257 45.0370585 46.03453085 45.01912348 48 45 C47.49775293 41.26751128 46.92856108 38.33638883 44.9375 35.125 C44.298125 34.09375 43.65875 33.0625 43 32 C45.4375 32.8125 45.4375 32.8125 48 34 C48.495 35.485 48.495 35.485 49 37 C49.66 37 50.32 37 51 37 C51.74389257 26.45325643 50.47838933 19.2822028 43.5625 11.125 C35.19923293 4.18960779 28.44032793 2.65636342 17.875 2.75 C16.55435547 2.73839844 16.55435547 2.73839844 15.20703125 2.7265625 C10.70475272 2.74014403 7.08421086 2.86468644 3 5 Z M53 21 C53.495 28.92 53.495 28.92 54 37 C56.43375 37.20625 58.8675 37.4125 61.375 37.625 C68.57943995 38.44415095 74.53744527 39.91059891 80 45 C86.58757394 53.69776189 87.81949499 61.21960108 87 72 C85.09342312 80.08388597 80.70121295 86.9642112 73.625 91.4375 C66.75523498 94.48190453 57.27113078 94.33509759 50.17578125 92.1171875 C42.0068169 87.92868625 37.49945455 81.49937739 34.6953125 72.8984375 C32.8279644 65.11432352 33.43113273 58.87008194 37.125 51.77734375 C38.14722801 50.03111881 38.14722801 50.03111881 38 48 C37.34773438 47.89042969 36.69546875 47.78085937 36.0234375 47.66796875 C30.81711558 46.72345902 26.73458347 45.42503056 22 43 C18.84557707 43.69013345 18.84557707 43.69013345 17.61328125 46.30859375 C12.78002462 57.93453536 11.83355573 70.05005034 16.0625 82.0625 C21.72497591 94.70763581 31.25428202 103.72874991 44 109 C56.55958685 113.47036142 71.06536013 111.62250797 83.125 106.375 C91.58275436 101.74085543 98.48216282 94.45682647 103 86 C103.4125 85.23816406 103.825 84.47632812 104.25 83.69140625 C109.04431939 73.02071623 108.82302821 58.8127485 105 47.875 C99.46417151 35.77991255 90.63907811 27.31107778 78.1875 22.625 C72.46590873 20.68118022 67.36698981 19.86119273 61.3125 19.875 C59.60513672 19.87113281 59.60513672 19.87113281 57.86328125 19.8671875 C55.05501397 19.80362215 55.05501397 19.80362215 53 21 Z " fill="#FBFBFB" transform="translate(0,0)"/>
<path d="M0 0 C4.61139444 1.81340722 8.35439594 4.23314878 12.23828125 7.2734375 C13.10453125 7.8509375 13.97078125 8.4284375 14.86328125 9.0234375 C23.69987293 17.39494541 28.2550453 27.47102505 28.75952148 39.52099609 C28.96234458 52.43686691 26.33675843 63.57800141 17.23828125 73.2734375 C6.81363563 83.79496645 -4.32105101 88.2661263 -19.19921875 88.7109375 C-32.25780303 88.39048144 -42.6273233 84.14817558 -52.015625 75.1015625 C-56.26043446 70.56751188 -59.45388162 66.03794699 -61.76171875 60.2734375 C-62.01034668 59.70536377 -62.25897461 59.13729004 -62.51513672 58.55200195 C-64.61342163 53.48603568 -65.30635902 49.05169215 -65.26171875 43.5859375 C-65.25889893 42.80935791 -65.2560791 42.03277832 -65.25317383 41.23266602 C-65.05416729 34.0410579 -63.51303157 27.51858082 -59.76171875 21.2734375 C-56.76171875 20.2734375 -56.76171875 20.2734375 -55 21.015625 C-54.36449219 21.38945313 -53.72898437 21.76328125 -53.07421875 22.1484375 C-48.90635733 24.39088613 -45.46024382 24.93782857 -40.76171875 25.2734375 C-41.05046875 25.9746875 -41.33921875 26.6759375 -41.63671875 27.3984375 C-42.00796875 28.3471875 -42.37921875 29.2959375 -42.76171875 30.2734375 C-43.13296875 31.1396875 -43.50421875 32.0059375 -43.88671875 32.8984375 C-46.20141851 41.82656515 -44.95652949 50.10654933 -40.76171875 58.2734375 C-37.03357839 63.8986822 -32.45056274 68.63181573 -25.76171875 70.2734375 C-17.69791713 71.1554158 -9.58267553 71.62422883 -2.58984375 66.88671875 C3.82298274 61.2275364 7.67568156 54.49936354 8.58984375 46.0078125 C8.98840673 36.31643894 7.02042266 29.85181921 0.86328125 22.3984375 C-5.01692103 17.63827375 -9.78424294 15.67690305 -17.19921875 15.0234375 C-19.69484375 14.7759375 -22.19046875 14.5284375 -24.76171875 14.2734375 C-25.09171875 8.9934375 -25.42171875 3.7134375 -25.76171875 -1.7265625 C-18.29328379 -5.46077998 -7.47678987 -2.34533342 0 0 Z " fill="#263374" transform="translate(78.76171875,22.7265625)"/>
<path d="M0 0 C0.89211182 0.00161133 1.78422363 0.00322266 2.70336914 0.00488281 C10.87952409 0.15663749 17.11238469 1.9121556 24.1875 6 C30.17954535 12.50564923 33.52489697 19.23540598 33.4375 28.0625 C33.42847656 29.24199219 33.41945312 30.42148437 33.41015625 31.63671875 C33.39855469 32.54035156 33.38695312 33.44398437 33.375 34.375 C32.715 34.375 32.055 34.375 31.375 34.375 C30.05664062 31.54296875 30.05664062 31.54296875 28.73828125 28.7109375 C25.1826503 22.61848103 20.99344059 19.09154796 15.0625 15.5 C14.41732422 15.0978125 13.77214844 14.695625 13.10742188 14.28125 C11.53565764 13.30326337 9.95611767 12.33779155 8.375 11.375 C9.12136719 11.96410156 9.86773438 12.55320312 10.63671875 13.16015625 C19.68436887 20.47829836 29.08970094 30.31853275 30.375 42.375 C11.15569516 43.36796064 11.15569516 43.36796064 4.375 37.375 C-0.32553411 32.4558364 -2.2311245 26.58316164 -4.39526367 20.23706055 C-6.2955119 14.76616863 -8.72704468 10.27295532 -12.875 6.125 C-13.4525 5.5475 -14.03 4.97 -14.625 4.375 C-14.625 3.715 -14.625 3.055 -14.625 2.375 C-9.84159035 -0.08560167 -5.25543244 -0.00975305 0 0 Z " fill="#69A349" transform="translate(17.625,2.625)"/>
<path d="M0 0 C9.93295901 2.8232071 17.87206123 9.5435512 23.109375 18.34765625 C23.55023438 19.16556641 23.55023438 19.16556641 24 20 C21.4375 20.0625 21.4375 20.0625 18 19 C16.06853501 16.90096499 14.45922582 14.6685559 12.796875 12.3515625 C10.66343352 9.55953691 8.29735371 7.4838119 5.578125 5.28515625 C3.57826447 3.65655695 1.78622631 1.85767536 0 0 Z " fill="#EBF3E5" transform="translate(24,13)"/>
</svg>
