<?xml version="1.0" encoding="UTF-8"?>
<svg version="1.1" xmlns="http://www.w3.org/2000/svg" width="891" height="146">
<path d="M0 0 C6.98027619 4.49449438 12.29917281 10.89751843 14.9375 18.8125 C15.0060495 20.70720816 15.02230372 22.6041834 15 24.5 C14.99097656 25.49386719 14.98195312 26.48773438 14.97265625 27.51171875 C14.96105469 28.27097656 14.94945312 29.03023437 14.9375 29.8125 C15.9275 29.8125 16.9175 29.8125 17.9375 29.8125 C17.6075 25.1925 17.2775 20.5725 16.9375 15.8125 C24.40593496 12.07828252 35.22242888 15.19372908 42.69921875 17.5390625 C47.31061319 19.35246972 51.05361469 21.77221128 54.9375 24.8125 C55.80375 25.39 56.67 25.9675 57.5625 26.5625 C66.39909168 34.93400791 70.95426405 45.01008755 71.45874023 57.06005859 C71.66156333 69.97592941 69.03597718 81.11706391 59.9375 90.8125 C49.51285438 101.33402895 38.37816774 105.8051888 23.5 106.25 C10.44141572 105.92954394 0.07189545 101.68723808 -9.31640625 92.640625 C-13.56121571 88.10657438 -16.75466287 83.57700949 -19.0625 77.8125 C-19.31112793 77.24442627 -19.55975586 76.67635254 -19.81591797 76.09106445 C-21.91420307 71.02509771 -22.60712556 66.59073893 -22.5625 61.125 C-22.55968018 60.34624512 -22.55686035 59.56749023 -22.55395508 58.76513672 C-22.30828541 49.86805907 -19.72171984 41.815992 -14.0625 34.8125 C-14.76375 33.9875 -15.465 33.1625 -16.1875 32.3125 C-19.42415322 27.84720222 -21.06972206 22.85229805 -22.83056641 17.67578125 C-24.73537875 12.20555094 -27.16341439 7.71158561 -31.3125 3.5625 C-31.89 2.985 -32.4675 2.4075 -33.0625 1.8125 C-33.0625 1.1525 -33.0625 0.4925 -33.0625 -0.1875 C-24.56249811 -4.70029418 -8.51635313 -4.11580592 0 0 Z " fill="#FBFCFC" transform="translate(40.0625,12.1875)"/>
<path d="M0 0 C2.48975589 1.886876 4.71360994 3.85954973 7 6 C7.33 3.36 7.66 0.72 8 -2 C13.61 -2 19.22 -2 25 -2 C25.06805813 6.17186186 25.12297762 14.34349952 25.15543652 22.51556969 C25.17102331 26.3111063 25.19213188 30.1064372 25.22631836 33.90185547 C25.25916373 37.57178362 25.27690541 41.24151522 25.28463173 44.91157913 C25.29013047 46.30447097 25.30086686 47.69735333 25.31719017 49.09016037 C25.45475701 61.32645377 24.07815485 71.42378357 16 81 C7.23079259 89.25458256 -3.99873063 90.26949128 -15.53515625 90.1484375 C-25.17646229 89.73539395 -33.00281428 86.33145714 -41 81 C-39.35821735 76.22390502 -36.73453298 72.20617096 -34 68 C-31.5613661 68.95145295 -29.16772636 69.91778708 -26.81640625 71.0703125 C-19.18997363 74.63900714 -10.90538293 75.59875003 -2.69140625 73.375 C1.40044022 71.40387396 3.57345715 68.32369239 5.35546875 64.3046875 C6.49630748 60.22532479 6.30927154 56.1923476 6 52 C5.319375 52.7425 4.63875 53.485 3.9375 54.25 C-0.85506835 58.98072876 -5.49213413 61.4768925 -12.20336914 61.60766602 C-12.92000732 61.59276123 -13.63664551 61.57785645 -14.375 61.5625 C-15.12450928 61.55081787 -15.87401855 61.53913574 -16.64624023 61.52709961 C-25.34315766 61.18050729 -30.27712937 58.00949168 -36.3125 51.875 C-43.85935838 42.68621035 -45.23507934 32.48840957 -44.27929688 20.93847656 C-43.61795771 16.34841277 -41.62699788 12.74347198 -39 9 C-38.278125 7.9275 -37.55625 6.855 -36.8125 5.75 C-26.53862668 -4.29556502 -12.71304778 -7.87111776 0 0 Z " fill="#263474" transform="translate(369,53)"/>
<path d="M0 0 C6.27 0 12.54 0 19 0 C19 30.69 19 61.38 19 93 C13.06 93 7.12 93 1 93 C0.505 89.04 0.505 89.04 0 85 C-0.4125 85.39832031 -0.825 85.79664062 -1.25 86.20703125 C-8.78850626 93.12293767 -15.28318392 94.66215163 -25.52734375 94.41015625 C-33.32001482 93.48976203 -39.26963215 89.58129728 -44.53515625 83.89453125 C-46.90412855 80.83066041 -48.52464281 77.56602924 -50 74 C-50.35449219 73.29230469 -50.70898438 72.58460937 -51.07421875 71.85546875 C-53.98633915 62.87335898 -53.46832391 50.65760465 -49.4375 42.1875 C-44.11289842 33.34641681 -37.7440441 28.2480147 -28 25 C-17.42876288 23.91073401 -9.26415309 26.38867753 -1 33 C-0.67 22.11 -0.34 11.22 0 0 Z " fill="#65A344" transform="translate(865,24)"/>
<path d="M0 0 C5.78456565 3.45044267 9.3512981 8.90953708 11.2265625 15.328125 C11.62565613 19.20675626 11.57656715 23.05362018 11.51953125 26.94921875 C11.51528641 28.04911636 11.51104156 29.14901398 11.50666809 30.28224182 C11.48994652 33.77695745 11.45230545 37.27108521 11.4140625 40.765625 C11.39900728 43.14256977 11.38532034 45.51952362 11.37304688 47.89648438 C11.3400642 53.70725593 11.28832615 59.51759097 11.2265625 65.328125 C5.2865625 65.328125 -0.6534375 65.328125 -6.7734375 65.328125 C-6.78802002 64.05171143 -6.80260254 62.77529785 -6.81762695 61.46020508 C-6.8756729 56.71692121 -6.95290578 51.97410893 -7.03588867 47.23120117 C-7.06910833 45.17984684 -7.09714947 43.12840175 -7.11987305 41.0769043 C-7.1534732 38.12509551 -7.20579226 35.17411614 -7.26171875 32.22265625 C-7.26810867 31.30789017 -7.2744986 30.39312408 -7.28108215 29.45063782 C-7.39232786 24.61443513 -7.60981582 21.2429485 -10.7734375 17.328125 C-14.97667228 14.45314737 -19.87784906 14.53467468 -24.7734375 15.328125 C-28.05663265 17.85892126 -31.44053077 20.99068193 -32.0519104 25.28337097 C-32.06523407 26.02283463 -32.07855774 26.76229828 -32.09228516 27.52416992 C-32.11215485 28.36481491 -32.13202454 29.2054599 -32.15249634 30.07157898 C-32.16982315 31.42640129 -32.16982315 31.42640129 -32.1875 32.80859375 C-32.20686615 33.73658279 -32.2262323 34.66457184 -32.2461853 35.62068176 C-32.30597994 38.58556925 -32.35236605 41.55049557 -32.3984375 44.515625 C-32.43661738 46.52540759 -32.47566912 48.53517381 -32.515625 50.54492188 C-32.61168143 55.47252342 -32.69571299 60.40020158 -32.7734375 65.328125 C-38.7134375 65.328125 -44.6534375 65.328125 -50.7734375 65.328125 C-50.78802002 64.05171143 -50.80260254 62.77529785 -50.81762695 61.46020508 C-50.8756729 56.71692121 -50.95290578 51.97410893 -51.03588867 47.23120117 C-51.06910833 45.17984684 -51.09714947 43.12840175 -51.11987305 41.0769043 C-51.1534732 38.12509551 -51.20579226 35.17411614 -51.26171875 32.22265625 C-51.26810867 31.30789017 -51.2744986 30.39312408 -51.28108215 29.45063782 C-51.39230804 24.61529664 -51.60829819 21.24098101 -54.7734375 17.328125 C-58.8074681 14.59752351 -63.073025 14.78997402 -67.7734375 15.328125 C-72.04625229 17.09298328 -73.83306349 19.17956406 -75.7734375 23.328125 C-76.23836459 26.55069159 -76.26188192 29.75168083 -76.28515625 33.00390625 C-76.30310745 33.9290654 -76.32105865 34.85422455 -76.33955383 35.80741882 C-76.39357829 38.75177503 -76.42752741 41.69596984 -76.4609375 44.640625 C-76.49411751 46.64129846 -76.5286078 48.64195065 -76.56445312 50.64257812 C-76.64930034 55.53764384 -76.71614916 60.43266233 -76.7734375 65.328125 C-82.7134375 65.328125 -88.6534375 65.328125 -94.7734375 65.328125 C-94.7734375 43.218125 -94.7734375 21.108125 -94.7734375 -1.671875 C-88.8334375 -1.671875 -82.8934375 -1.671875 -76.7734375 -1.671875 C-76.4434375 0.968125 -76.1134375 3.608125 -75.7734375 6.328125 C-75.31453125 5.91820312 -74.855625 5.50828125 -74.3828125 5.0859375 C-73.76921875 4.54710937 -73.155625 4.00828125 -72.5234375 3.453125 C-71.92015625 2.91945313 -71.316875 2.38578125 -70.6953125 1.8359375 C-64.27164226 -3.20377127 -56.55055376 -2.29033355 -48.7734375 -1.671875 C-42.71782294 -0.0811464 -38.8981903 3.79089692 -34.7734375 8.328125 C-34.37253906 7.86921875 -33.97164062 7.4103125 -33.55859375 6.9375 C-24.2303663 -3.13106296 -12.71713237 -5.73280253 0 0 Z " fill="#263475" transform="translate(221.7734375,51.671875)"/>
<path d="M0 0 C-1.64566523 5.68502535 -4.29032784 10.76681636 -7 16 C-10.75037843 14.81566997 -14.37103613 13.4450001 -18 11.9375 C-25.50835112 8.94084354 -32.93552714 8.19919221 -41 9 C-44.33053345 10.35734469 -44.33053345 10.35734469 -46 13 C-46.83349951 15.95659873 -46.83349951 15.95659873 -46 19 C-42.14284947 24.52858243 -37.17255529 25.39215523 -31 27 C-6.4932442 33.77134974 -6.4932442 33.77134974 -1 43 C2.67802006 50.43634624 2.93398586 56.72493661 0.375 64.5625 C-2.69248719 72.23652505 -6.08988705 76.34322935 -13.625 79.875 C-26.66605007 85.39096235 -42.44233044 84.66465341 -55.53515625 79.64453125 C-61.337924 76.89034272 -66.68790813 73.61007255 -72 70 C-70.73829891 65.82291191 -69.17688391 62.32803063 -66.875 58.625 C-66.33617187 57.75101562 -65.79734375 56.87703125 -65.2421875 55.9765625 C-64.62730469 54.99816406 -64.62730469 54.99816406 -64 54 C-62.62328125 54.81404297 -62.62328125 54.81404297 -61.21875 55.64453125 C-57.50990284 57.81941623 -53.7654711 59.92494788 -50 62 C-49.29101562 62.39574219 -48.58203125 62.79148437 -47.8515625 63.19921875 C-40.96786468 66.39188403 -30.26039658 66.30257786 -23.07421875 64.10546875 C-20.84630455 63.17509756 -20.84630455 63.17509756 -20 61 C-19.71638279 58.06928888 -19.5131557 55.84747306 -20 53 C-24.68856234 47.5788498 -32.00254388 46.20698647 -38.71801758 44.67285156 C-49.36467639 42.2057158 -58.61777339 39.21742466 -64.9765625 29.734375 C-68.35284049 24.01274359 -67.85081928 16.47833558 -67 10 C-64.75945432 3.27836297 -60.52060215 -1.26314774 -54.4609375 -4.81640625 C-36.32711895 -13.53790946 -17.14777469 -8.57388735 0 0 Z " fill="#61A342" transform="translate(595,35)"/>
<path d="M0 0 C4.61139444 1.81340722 8.35439594 4.23314878 12.23828125 7.2734375 C13.10453125 7.8509375 13.97078125 8.4284375 14.86328125 9.0234375 C23.69987293 17.39494541 28.2550453 27.47102505 28.75952148 39.52099609 C28.96234458 52.43686691 26.33675843 63.57800141 17.23828125 73.2734375 C6.81363563 83.79496645 -4.32105101 88.2661263 -19.19921875 88.7109375 C-32.25780303 88.39048144 -42.6273233 84.14817558 -52.015625 75.1015625 C-56.26043446 70.56751188 -59.45388162 66.03794699 -61.76171875 60.2734375 C-62.01034668 59.70536377 -62.25897461 59.13729004 -62.51513672 58.55200195 C-64.61342163 53.48603568 -65.30635902 49.05169215 -65.26171875 43.5859375 C-65.25889893 42.80935791 -65.2560791 42.03277832 -65.25317383 41.23266602 C-65.05416729 34.0410579 -63.51303157 27.51858082 -59.76171875 21.2734375 C-56.76171875 20.2734375 -56.76171875 20.2734375 -55 21.015625 C-54.36449219 21.38945313 -53.72898437 21.76328125 -53.07421875 22.1484375 C-48.90635733 24.39088613 -45.46024382 24.93782857 -40.76171875 25.2734375 C-41.05046875 25.9746875 -41.33921875 26.6759375 -41.63671875 27.3984375 C-42.00796875 28.3471875 -42.37921875 29.2959375 -42.76171875 30.2734375 C-43.13296875 31.1396875 -43.50421875 32.0059375 -43.88671875 32.8984375 C-46.20141851 41.82656515 -44.95652949 50.10654933 -40.76171875 58.2734375 C-37.03357839 63.8986822 -32.45056274 68.63181573 -25.76171875 70.2734375 C-17.69791713 71.1554158 -9.58267553 71.62422883 -2.58984375 66.88671875 C3.82298274 61.2275364 7.67568156 54.49936354 8.58984375 46.0078125 C8.98840673 36.31643894 7.02042266 29.85181921 0.86328125 22.3984375 C-5.01692103 17.63827375 -9.78424294 15.67690305 -17.19921875 15.0234375 C-19.69484375 14.7759375 -22.19046875 14.5284375 -24.76171875 14.2734375 C-25.09171875 8.9934375 -25.42171875 3.7134375 -25.76171875 -1.7265625 C-18.29328379 -5.46077998 -7.47678987 -2.34533342 0 0 Z " fill="#263474" transform="translate(82.76171875,29.7265625)"/>
<path d="M0 0 C6.0565907 4.88932049 8.34419271 9.77817228 9.6484375 17.421875 C9.72989507 18.98637505 9.76637588 20.55374833 9.76196289 22.12036133 C9.76188736 23.02091751 9.76181183 23.92147369 9.76173401 24.84931946 C9.75657272 25.8078331 9.75141144 26.76634674 9.74609375 27.75390625 C9.7446788 28.74565353 9.74326385 29.73740082 9.74180603 30.75920105 C9.73622168 33.91762343 9.72367202 37.07597415 9.7109375 40.234375 C9.70592048 42.37955627 9.70135792 44.52473865 9.69726562 46.66992188 C9.68625737 51.9206004 9.66900347 57.17122556 9.6484375 62.421875 C3.7084375 62.421875 -2.2315625 62.421875 -8.3515625 62.421875 C-8.3515625 60.111875 -8.3515625 57.801875 -8.3515625 55.421875 C-8.92003906 55.83179688 -9.48851562 56.24171875 -10.07421875 56.6640625 C-18.84542292 62.78486941 -26.65044264 64.61653684 -37.3515625 63.421875 C-44.06334095 61.52786629 -48.81513023 58.05413102 -52.34765625 52.015625 C-54.51419471 46.41803147 -54.53620265 40.69992034 -52.49609375 35.0546875 C-48.54385342 27.90558383 -41.95531359 24.6471956 -34.3515625 22.421875 C-31.37548828 22.19482422 -31.37548828 22.19482422 -28.296875 22.2265625 C-26.63398437 22.23623047 -26.63398437 22.23623047 -24.9375 22.24609375 C-23.79539062 22.26285156 -22.65328125 22.27960938 -21.4765625 22.296875 C-19.72859375 22.31041016 -19.72859375 22.31041016 -17.9453125 22.32421875 C-15.08051673 22.34770068 -12.21614715 22.38054359 -9.3515625 22.421875 C-10.98985205 16.08919327 -10.98985205 16.08919327 -15.3515625 11.421875 C-25.3313562 8.0952771 -35.06316131 11.64743635 -44.3515625 15.421875 C-45.05289849 13.84462153 -45.7371455 12.25976167 -46.4140625 10.671875 C-46.79691406 9.79015625 -47.17976562 8.9084375 -47.57421875 8 C-48.42273306 5.18583192 -48.68236415 4.03893264 -47.3515625 1.421875 C-33.67975431 -7.41597244 -13.77573495 -9.24484538 0 0 Z " fill="#65A546" transform="translate(662.3515625,54.578125)"/>
<path d="M0 0 C6.46827026 4.57930638 9.37908004 11.26020009 12.25 18.4375 C12.25 24.0475 12.25 29.6575 12.25 35.4375 C-3.59 35.4375 -19.43 35.4375 -35.75 35.4375 C-31.39754432 43.21187913 -31.39754432 43.21187913 -24.75 47.4375 C-17.77565672 48.36812556 -12.0712589 47.42573148 -5.75 44.4375 C-5.09 43.7775 -4.43 43.1175 -3.75 42.4375 C-0.31078907 42.77708595 1.83014276 44.40861183 4.5 46.5 C5.20640625 47.04785156 5.9128125 47.59570312 6.640625 48.16015625 C7.17171875 48.58167969 7.7028125 49.00320312 8.25 49.4375 C5.9265142 54.87070165 1.37970084 57.91936153 -3.84375 60.453125 C-15.52324875 65.0350822 -26.22974681 64.14172475 -37.75 59.4375 C-45.499753 55.12102441 -50.12352049 48.94540117 -53.11938477 40.66748047 C-55.58755905 31.93952697 -55.07468851 20.95366105 -51.3125 12.75 C-46.20082809 4.15036373 -38.45180004 -2.17670332 -28.87109375 -5.14453125 C-18.6875517 -7.15123291 -8.85486716 -5.2183107 0 0 Z " fill="#273575" transform="translate(301.75,54.5625)"/>
<path d="M0 0 C4.81365613 4.19989305 8.60105875 8.91701525 9.24050903 15.46150208 C9.2338472 16.75056709 9.2338472 16.75056709 9.22705078 18.06567383 C9.22689972 19.04631302 9.22674866 20.02695221 9.22659302 21.03730774 C9.21627045 22.0833165 9.20594788 23.12932526 9.1953125 24.20703125 C9.1924826 25.28756271 9.18965271 26.36809418 9.18673706 27.48136902 C9.17556132 30.92519301 9.15046118 34.36875489 9.125 37.8125 C9.11496685 40.15038686 9.10584158 42.48827781 9.09765625 44.82617188 C9.07563046 50.55088191 9.04111821 56.27539655 9 62 C3.39 62 -2.22 62 -8 62 C-8.495 59.03 -8.495 59.03 -9 56 C-9.804375 56.763125 -10.60875 57.52625 -11.4375 58.3125 C-17.80457989 63.53677068 -24.99511614 64.59032088 -33.0703125 64.34375 C-39.40220569 63.60080787 -44.11664253 61.32067885 -48.4375 56.625 C-52.10819737 51.83580759 -53.521778 47.17298264 -53.30078125 41.078125 C-52.58309308 36.11955221 -50.70957274 32.44607896 -46.87109375 29.19921875 C-40.96870661 25.12491857 -36.88766713 23.8684544 -29.703125 23.90234375 C-28.49785156 23.90556641 -27.29257812 23.90878906 -26.05078125 23.91210938 C-24.79652344 23.92048828 -23.54226563 23.92886719 -22.25 23.9375 C-20.34541016 23.94426758 -20.34541016 23.94426758 -18.40234375 23.95117188 C-15.26818164 23.96295444 -12.13411459 23.97940584 -9 24 C-9.26898708 22.53935507 -9.5531398 21.08149696 -9.84375 19.625 C-10.00037109 18.81289062 -10.15699219 18.00078125 -10.31835938 17.1640625 C-10.86502556 14.72728241 -10.86502556 14.72728241 -13.5 13 C-14.325 12.67 -15.15 12.34 -16 12 C-16.66 11.67 -17.32 11.34 -18 11 C-25.19358976 10.28064102 -31.25193933 11.62310578 -38 14 C-39.19625 14.391875 -40.3925 14.78375 -41.625 15.1875 C-42.40875 15.455625 -43.1925 15.72375 -44 16 C-44.6987693 14.23358317 -45.38366583 12.46167336 -46.0625 10.6875 C-46.44535156 9.70136719 -46.82820313 8.71523438 -47.22265625 7.69921875 C-48 5 -48 5 -47 2 C-44.453125 0.6484375 -44.453125 0.6484375 -41.25 -0.625 C-40.20328125 -1.05039062 -39.1565625 -1.47578125 -38.078125 -1.9140625 C-26.94758095 -5.84082804 -10.22568947 -6.40667107 0 0 Z " fill="#253374" transform="translate(462,54)"/>
<path d="M0 0 C6.27 0 12.54 0 19 0 C19.02578125 3.03445312 19.0515625 6.06890625 19.078125 9.1953125 C19.1165718 12.14429884 19.1617236 15.0931119 19.20751953 18.04199219 C19.23569066 20.08650395 19.25692435 22.13112384 19.27099609 24.17578125 C19.29247887 27.12035322 19.3391569 30.06363041 19.390625 33.0078125 C19.39185364 33.9174173 19.39308228 34.82702209 19.39434814 35.76419067 C19.52453003 41.44478815 20.27045802 44.64305028 24 49 C28.17427993 51.08713996 33.73644018 50.73356105 38.109375 49.31640625 C42.54740275 47.03101162 44.2215267 44.53897738 46 40 C46.4394897 36.95953327 46.48786582 33.95166355 46.51171875 30.8828125 C46.52966995 30.02565643 46.54762115 29.16850037 46.56611633 28.28536987 C46.62001405 25.56529564 46.65404858 22.8453948 46.6875 20.125 C46.72069126 18.27341348 46.75518259 16.42184978 46.79101562 14.5703125 C46.87816113 10.04685289 46.93840336 5.52416732 47 1 C52.94 1 58.88 1 65 1 C65 22.78 65 44.56 65 67 C59.06 67 53.12 67 47 67 C46.505 62.545 46.505 62.545 46 58 C45.525625 58.7425 45.05125 59.485 44.5625 60.25 C40.38793527 64.73002069 33.78512465 67.6158193 27.65234375 68.23828125 C20.77564414 68.42627735 14.91354383 67.72832886 9 64 C6.57668694 61.55160088 4.72114952 58.9771235 3 56 C2.6390625 55.38125 2.278125 54.7625 1.90625 54.125 C-0.61949898 48.20255411 -0.13105947 41.66310818 -0.09765625 35.3515625 C-0.0962413 34.33903412 -0.09482635 33.32650574 -0.09336853 32.28329468 C-0.08779143 29.06383249 -0.07524312 25.84444101 -0.0625 22.625 C-0.05748204 20.43619892 -0.05291965 18.24739675 -0.04882812 16.05859375 C-0.03782949 10.70570211 -0.02058063 5.35286303 0 0 Z " fill="#63A243" transform="translate(731,50)"/>
<path d="M0 0 C6.27 0 12.54 0 19 0 C19 30.69 19 61.38 19 93 C12.73 93 6.46 93 0 93 C0 62.31 0 31.62 0 0 Z " fill="#67A347" transform="translate(692,24)"/>
<path d="M0 0 C6.98027619 4.49449438 12.29917281 10.89751843 14.9375 18.8125 C15.00687062 21.04068441 15.02207084 23.27084524 15 25.5 C14.99097656 26.67949219 14.98195312 27.85898437 14.97265625 29.07421875 C14.96105469 29.97785156 14.94945312 30.88148437 14.9375 31.8125 C14.2775 31.8125 13.6175 31.8125 12.9375 31.8125 C11.61914062 28.98046875 11.61914062 28.98046875 10.30078125 26.1484375 C6.7451503 20.05598103 2.55594059 16.52904796 -3.375 12.9375 C-4.02017578 12.5353125 -4.66535156 12.133125 -5.33007812 11.71875 C-6.90184236 10.74076337 -8.48138233 9.77529155 -10.0625 8.8125 C-9.31613281 9.40160156 -8.56976562 9.99070312 -7.80078125 10.59765625 C1.24686887 17.91579836 10.65220094 27.75603275 11.9375 39.8125 C-7.28180484 40.80546064 -7.28180484 40.80546064 -14.0625 34.8125 C-18.76303411 29.8933364 -20.6686245 24.02066164 -22.83276367 17.67456055 C-24.7330119 12.20366863 -27.16454468 7.71045532 -31.3125 3.5625 C-31.89 2.985 -32.4675 2.4075 -33.0625 1.8125 C-33.0625 1.1525 -33.0625 0.4925 -33.0625 -0.1875 C-24.56249811 -4.70029418 -8.51635313 -4.11580592 0 0 Z " fill="#69A349" transform="translate(40.0625,12.1875)"/>
<path d="M0 0 C5.69595431 2.79619575 9.51209242 7.18425023 12 13 C13.03656277 19.97871912 11.76655714 26.04640969 8 32 C2.9609126 36.91618283 -1.48575971 37.35288776 -8.2734375 37.28125 C-13.32063711 36.76062196 -15.93353795 34.15533389 -19.25 30.5625 C-22.95182407 25.14197189 -23.71099235 20.46558667 -23 14 C-21.16583314 8.20789412 -18.42935175 4.09285921 -13.17578125 0.88671875 C-8.94837492 -0.8361201 -4.4720985 -0.52574743 0 0 Z " fill="#FBFCFA" transform="translate(854,65)"/>
<path d="M0 0 C4.94122857 4.8145304 6.7000125 7.91661632 6.9375 14.875 C6.76253993 20.17809991 6.20181432 23.40720923 2.4375 27.375 C-2.81001332 31.99780935 -5.9100439 32.72831 -12.80078125 32.65625 C-17.95052556 32.13180645 -20.57622397 29.49455658 -23.875 25.75 C-27.66710045 20.41296974 -27.35796686 14.74616917 -26.5625 8.375 C-21.59160631 -2.26303633 -10.47454431 -4.77786232 0 0 Z " fill="#F9FAFB" transform="translate(369.5625,66.625)"/>
<path d="M0 0 C3.15347038 2.33945091 4.27764718 4.71849408 5.80078125 8.3359375 C5.80078125 9.9859375 5.80078125 11.6359375 5.80078125 13.3359375 C-4.42921875 13.3359375 -14.65921875 13.3359375 -25.19921875 13.3359375 C-24.16592366 6.10287188 -23.30799569 3.93507976 -18.19921875 -0.6640625 C-12.16701139 -4.22151813 -5.91295555 -3.23777372 0 0 Z " fill="#F0F2F6" transform="translate(291.19921875,65.6640625)"/>
<path d="M0 0 C0.97904297 0.01804687 1.95808594 0.03609375 2.96679688 0.0546875 C5.37470771 0.10167113 7.78059335 0.16734306 10.1875 0.25 C10.22984851 1.68984939 10.26006722 3.13005898 10.28515625 4.5703125 C10.30328369 5.37227051 10.32141113 6.17422852 10.34008789 7.00048828 C10.1875 9.25 10.1875 9.25 8.625 12.125 C3.3455924 16.72756047 -1.62773315 17.85831393 -8.5 17.5859375 C-10.8125 17.25 -10.8125 17.25 -13.9375 15.8125 C-16.30672982 12.57455258 -16.40931707 10.39588301 -16.4765625 6.46875 C-14.1646297 -1.25582548 -6.54873019 -0.22869978 0 0 Z " fill="#FBFCFA" transform="translate(642.8125,87.75)"/>
<path d="M0 0 C1.39025391 0.03383789 1.39025391 0.03383789 2.80859375 0.06835938 C5.08242335 0.12696323 7.35284886 0.2089307 9.625 0.3125 C9.6844241 1.74037624 9.72665643 3.16897419 9.76171875 4.59765625 C9.79978638 5.79080444 9.79978638 5.79080444 9.83862305 7.00805664 C9.46335971 11.05618313 7.58921577 12.61177008 4.625 15.3125 C0.19140484 18.09933124 -5.3057644 18.08865091 -10.375 17.3125 C-13.35234755 15.9970644 -14.23292739 14.96190559 -16.375 12.3125 C-17.125 8.8125 -17.125 8.8125 -16.375 5.3125 C-11.38934976 -0.29838651 -7.24012488 -0.33566913 0 0 Z " fill="#F8F8FA" transform="translate(443.375,87.6875)"/>
<path d="M0 0 C9.93295901 2.8232071 17.87206123 9.5435512 23.109375 18.34765625 C23.55023438 19.16556641 23.55023438 19.16556641 24 20 C21.4375 20.0625 21.4375 20.0625 18 19 C16.06853501 16.90096499 14.45922582 14.6685559 12.796875 12.3515625 C10.66343352 9.55953691 8.29735371 7.4838119 5.578125 5.28515625 C3.57826447 3.65655695 1.78622631 1.85767536 0 0 Z " fill="#F1F7EC" transform="translate(28,20)"/>
<path d="M0 0 C1.670625 0.9590625 1.670625 0.9590625 3.375 1.9375 C8.14645698 4.35743248 12.71244433 4.7832969 18 5 C18 5.33 18 5.66 18 6 C15.69 6 13.38 6 11 6 C11 6.66 11 7.32 11 8 C5.65155992 7.46515599 1.64203897 5.53309233 -3 3 C-2.01 2.01 -1.02 1.02 0 0 Z " fill="#E7EAE8" transform="translate(27,47)"/>
<path d="M0 0 C1.18851563 0.00902344 2.37703125 0.01804687 3.6015625 0.02734375 C4.51679687 0.03894531 5.43203125 0.05054687 6.375 0.0625 C6.375 0.3925 6.375 0.7225 6.375 1.0625 C5.45267578 1.10117187 5.45267578 1.10117187 4.51171875 1.140625 C-0.40433588 1.39137853 -0.40433588 1.39137853 -4.625 3.625 C-6.05097132 7.10080509 -6.31302353 10.31878235 -6.625 14.0625 C-6.955 14.0625 -7.285 14.0625 -7.625 14.0625 C-7.955 9.7725 -8.285 5.4825 -8.625 1.0625 C-5.74084117 -0.37957941 -3.20778472 -0.03144887 0 0 Z " fill="#4B5189" transform="translate(65.625,26.9375)"/>
<path d="M0 0 C0.66 0 1.32 0 2 0 C2 4.29 2 8.58 2 13 C1.34 13 0.68 13 0 13 C-1.85072153 7.85910687 -2.21474076 5.04468729 0 0 Z " fill="#76AB61" transform="translate(53,31)"/>
<path d="M0 0 C2.7839183 1.39195915 2.97898997 3.15575779 4 6 C1 6 1 6 -0.6875 4.625 C-2 3 -2 3 -2 1 C-1.34 0.67 -0.68 0.34 0 0 Z " fill="#2A377F" transform="translate(32,101)"/>
<path d="M0 0 C1 2 1 2 0.875 3.9375 C-0.3582873 6.84453436 -2.25745971 7.59356908 -5 9 C-3.7508258 5.54074837 -2.32472205 2.85306797 0 0 Z " fill="#38457D" transform="translate(415,83)"/>
<path d="M0 0 C4.43090471 1.20842856 6.98112756 2.51668565 10 6 C6.62972148 6 5.93297304 5.50175992 3.3125 3.5625 C2.68988281 3.11003906 2.06726563 2.65757813 1.42578125 2.19140625 C0.95527344 1.79824219 0.48476563 1.40507812 0 1 C0 0.67 0 0.34 0 0 Z " fill="#DAE7D0" transform="translate(28,20)"/>
</svg>
